####
#
# OBJ File Generated by Meshlab
#
####
# Object box.obj
#
# Vertices: 8
# Faces: 12
#
####
mtllib ./box.obj.mtl

vn -1.000000 -2.000000 2.000000
v 0.000000 0.000000 -0.000000
vn -2.000000 -1.000000 -1.000000
v 0.000000 0.000000 -0.200000
vn 1.000000 -2.000000 -2.000000
v 0.200000 0.000000 -0.200000
vn 2.000000 -1.000000 1.000000
v 0.200000 0.000000 -0.000000
vn -2.000000 1.000000 1.000000
v 0.000000 0.200000 -0.000000
vn -1.000000 2.000000 -2.000000
v 0.000000 0.200000 -0.200000
vn 1.000000 2.000000 2.000000
v 0.200000 0.200000 -0.000000
vn 2.000000 1.000000 -1.000000
v 0.200000 0.200000 -0.200000
# 8 vertices, 0 vertices normals


usemtl material_0
vt 0.000000 0.000000
vt 0.000000 6.666670
vt -6.666670 6.666670
f 1/1/1 2/2/2 3/3/3
vt -6.666670 0.000000
f 1/1/1 3/3/3 4/4/4
f 2/4/2 1/1/1 5/2/5
f 2/4/2 5/2/5 6/3/6
vt 6.666670 0.000000
vt 6.666670 6.666670
f 1/1/1 4/5/4 7/6/7
f 1/1/1 7/6/7 5/2/5
f 4/1/4 3/5/3 8/6/8
f 4/1/4 8/6/8 7/2/7
f 3/4/3 2/1/2 6/2/6
f 3/4/3 6/2/6 8/3/8
f 6/2/6 5/1/5 7/5/7
f 6/2/6 7/5/7 8/6/8
# 12 faces, 6 coords texture

# End of File
